<?xml version="1.0" encoding="utf-8"?>
<!-- Generator: Adobe Illustrator 15.0.2, SVG Export Plug-In . SVG Version: 6.00 Build 0)  -->
<!DOCTYPE svg PUBLIC "-//W3C//DTD SVG 1.1//EN" "http://www.w3.org/Graphics/SVG/1.1/DTD/svg11.dtd">
<svg version="1.1" id="Layer_1" xmlns="http://www.w3.org/2000/svg" xmlns:xlink="http://www.w3.org/1999/xlink" x="0px" y="0px"
	 width="256px" height="256px" viewBox="0 0 156 156" enable-background="new 0 0 156 156" xml:space="preserve">
<path fill-rule="evenodd" clip-rule="evenodd" fill="none" d="M-458.993-1147c43.078,0,78,34.922,78,78s-34.922,78-78,78
	s-78-34.922-78-78S-502.071-1147-458.993-1147z"/>
<path fill-rule="evenodd" clip-rule="evenodd" fill="#EA2227" d="M78.007,0c43.078,0,78,34.922,78,78s-34.922,78-78,78
	s-78-34.922-78-78S34.929,0,78.007,0z"/>
<path fill-rule="evenodd" clip-rule="evenodd" fill="#FFFFFF" d="M109.007,70.997c-5.526,0-10.006-1.792-10.006-4.002
	c0-2.211,4.479-4.002,10.006-4.002c5.525,0,10.005,1.792,10.005,4.002C119.012,69.205,114.533,70.997,109.007,70.997z
	 M102.835,60.243l-6.443,6.443l4.899,4.899c2.087,0.883,4.77,1.422,7.716,1.422c4.178,0,7.853-1.07,10-2.691v16.638
	c0,0.014,0.005,0.026,0.005,0.04c0,2.21-4.479,4.001-10.005,4.001c-5.526,0-10.006-1.792-10.006-4.001
	c0-0.016,0.006-0.03,0.006-0.045v-0.251l-2.615,2.615l6.428,6.428c2.535,0.726,4.192,1.91,4.192,3.253
	c0,2.21-4.479,4.002-10.005,4.002c-5.526,0-10.006-1.792-10.006-4.002c0-0.112,0.02-0.223,0.042-0.333l-1.965,1.965l1.929,1.929
	v-0.239c2.147,1.621,5.822,2.69,10,2.69s7.853-1.07,10-2.691v16.638c0,0.013,0.005,0.026,0.005,0.04
	c0,2.21-4.479,4.002-10.005,4.002c-5.526,0-10.006-1.792-10.006-4.002c0-0.015,0.006-0.029,0.006-0.044v-2.251l-9-9l-9,9v2.251
	c0,0.015,0.006,0.029,0.006,0.044c0,2.21-4.479,4.002-10.006,4.002c-5.525,0-10.005-1.792-10.005-4.002
	c0-0.013,0.005-0.026,0.005-0.04v-16.638c2.147,1.621,5.822,2.691,10,2.691s7.853-1.07,10-2.69v0.239l1.929-1.929l-1.965-1.965
	c0.022,0.11,0.042,0.22,0.042,0.333c0,2.21-4.479,4.002-10.006,4.002c-5.525,0-10.005-1.792-10.005-4.002
	c0-1.343,1.657-2.527,4.192-3.253l6.428-6.428l-2.615-2.615v0.251c0,0.016,0.006,0.03,0.006,0.045c0,2.21-4.479,4.001-10.006,4.001
	c-5.525,0-10.005-1.792-10.005-4.001c0-0.014,0.005-0.026,0.005-0.04V70.317c2.147,1.621,5.822,2.691,10,2.691
	c2.946,0,5.629-0.54,7.716-1.422l4.899-4.9l-6.443-6.443c-2.526-0.727-4.177-1.909-4.177-3.248c0-0.014,0.005-0.026,0.005-0.04
	V40.317c2.147,1.621,5.822,2.691,10,2.691c3.559,0,6.743-0.781,8.938-2.013c0.212-0.118,0.405-0.245,0.6-0.371
	c0.114-0.075,0.233-0.148,0.34-0.226c0.243-0.174,0.475-0.353,0.678-0.541l8.444,8.444l8.444-8.444
	c0.203,0.188,0.435,0.367,0.678,0.541c0.106,0.078,0.226,0.15,0.34,0.226c0.194,0.126,0.388,0.253,0.6,0.371
	c2.195,1.232,5.38,2.013,8.938,2.013c4.178,0,7.853-1.07,10-2.691v16.638c0,0.014,0.005,0.026,0.005,0.04
	C107.012,58.334,105.362,59.517,102.835,60.243z M87.007,56.95v-3.506l-1.929,1.929l1.967,1.967
	c-0.024-0.114-0.044-0.229-0.044-0.345C87.001,56.98,87.007,56.965,87.007,56.95z M68.969,57.34l1.967-1.967l-1.929-1.929v3.506
	c0,0.015,0.006,0.03,0.006,0.045C69.013,57.111,68.994,57.226,68.969,57.34z M73.764,78l4.243,4.243L82.25,78l-4.243-4.243
	L73.764,78z M76.593,72.344l-4.243-4.243l-4.242,4.243l4.242,4.242L76.593,72.344z M83.665,76.586l4.242-4.242l-4.243-4.243
	l-4.242,4.243L83.665,76.586z M85.079,78l4.242,4.243L93.564,78l-4.243-4.243L85.079,78z M89.321,85.071l-4.242,4.243l4.242,4.243
	l4.243-4.242L89.321,85.071z M87.907,83.657l-4.242-4.243l-4.243,4.243l4.242,4.243L87.907,83.657z M78.007,85.071l-4.243,4.243
	l4.243,4.242l4.242-4.242L78.007,85.071z M76.593,83.657l-4.243-4.243l-4.242,4.243L72.35,87.9L76.593,83.657z M66.694,85.071
	l-4.243,4.243l4.243,4.242l4.242-4.243L66.694,85.071z M70.936,78l-4.242-4.243L62.451,78l4.243,4.243L70.936,78z M70.936,66.687
	l-4.242-4.242l-4.243,4.242l4.243,4.243L70.936,66.687z M66.816,59.494c-0.055,0.027-0.108,0.054-0.164,0.081l0.042,0.041
	L66.816,59.494z M68.108,61.03l4.242,4.243l4.243-4.243l-4.243-4.243L68.108,61.03z M73.765,66.687l4.242,4.243l4.242-4.243
	l-4.242-4.242L73.765,66.687z M83.665,65.272l4.242-4.243l-4.242-4.243l-4.243,4.243L83.665,65.272z M89.321,62.444l-4.242,4.243
	l4.242,4.243l4.243-4.243L89.321,62.444z M89.321,59.616l0.042-0.042c-0.056-0.026-0.109-0.054-0.164-0.081L89.321,59.616z
	 M90.735,72.344l4.243,4.242l4.029-4.029V72.13l-4.029-4.03L90.735,72.344z M99.007,75.385L96.392,78l2.615,2.616V75.385z
	 M99.007,83.87v-0.426l-4.029-4.03l-4.243,4.243l4.243,4.243L99.007,83.87z M99.358,95.108l-4.38-4.38l-4.243,4.242l0.7,0.7
	c1.593-0.428,3.509-0.678,5.572-0.678C97.818,94.993,98.603,95.036,99.358,95.108z M89.355,96.419l-0.034-0.034l-0.098,0.099
	C89.266,96.462,89.31,96.44,89.355,96.419z M87.907,94.971l-4.243-4.242l-4.242,4.242l4.242,4.243L87.907,94.971z M87.007,113.87
	v-8.485l-3.343-3.343l-4.243,4.243L87.007,113.87z M82.25,100.628l-4.242-4.243l-4.242,4.243l4.242,4.242L82.25,100.628z
	 M69.007,105.385v8.485l7.586-7.586l-4.243-4.242L69.007,105.385z M72.351,99.213l4.242-4.243l-4.243-4.242l-4.242,4.242
	L72.351,99.213z M66.694,96.385l-0.034,0.034c0.045,0.021,0.089,0.043,0.132,0.064L66.694,96.385z M56.657,95.108
	c0.755-0.072,1.54-0.115,2.351-0.115c2.063,0,3.979,0.25,5.572,0.678l0.7-0.7l-4.243-4.242L56.657,95.108z M61.037,87.9l4.243-4.243
	l-4.243-4.243l-4.029,4.03v0.426L61.037,87.9z M57.007,80.616L59.623,78l-2.615-2.615V80.616z M57.007,72.13v0.426l4.029,4.029
	l4.243-4.242l-4.243-4.243L57.007,72.13z M56.644,60.88l4.393,4.393l4.243-4.243l-0.709-0.709c-1.591,0.426-3.504,0.676-5.563,0.676
	C58.192,60.997,57.403,60.954,56.644,60.88z M69.007,42.131v8.485l3.343,3.343l4.243-4.243L69.007,42.131z M78.007,51.13
	l-4.242,4.243l4.242,4.242l4.242-4.242L78.007,51.13z M79.421,49.716l4.242,4.243l3.344-3.344V42.13L79.421,49.716z M91.444,60.321
	l-0.709,0.709l4.243,4.243l4.393-4.393c-0.759,0.074-1.548,0.117-2.363,0.117C94.948,60.997,93.035,60.747,91.444,60.321z
	 M97.007,40.997c-5.526,0-10.006-1.792-10.006-4.001c0-2.211,4.479-4.002,10.006-4.002c5.525,0,10.005,1.792,10.005,4.002
	C107.012,39.205,102.533,40.997,97.007,40.997z M59.007,40.997c-5.525,0-10.005-1.792-10.005-4.001
	c0-2.211,4.479-4.002,10.005-4.002c5.526,0,10.006,1.792,10.006,4.002C69.013,39.205,64.534,40.997,59.007,40.997z M57.013,66.995
	c0,2.21-4.479,4.002-10.006,4.002c-5.525,0-10.005-1.792-10.005-4.002c0-2.211,4.479-4.002,10.005-4.002
	C52.534,62.993,57.013,64.784,57.013,66.995z"/>
</svg>
